<svg xmlns="http://www.w3.org/2000/svg" version="1.1" xmlns:xlink="http://www.w3.org/1999/xlink" xmlns:svgjs="http://svgjs.dev/svgjs" width="1000" height="1125" viewBox="0 0 1000 1125"><g transform="matrix(1,0,0,1,0,0)"><svg viewBox="0 0 320 360" data-background-color="#001f3f" preserveAspectRatio="xMidYMid meet" height="1125" width="1000" xmlns="http://www.w3.org/2000/svg" xmlns:xlink="http://www.w3.org/1999/xlink"><g id="tight-bounds" transform="matrix(1,0,0,1,0,0)"><svg viewBox="0 0 320 360" height="360" width="320"><g><svg></svg></g><g><svg viewBox="0 0 320 360" height="360" width="320"><g><path xmlns="http://www.w3.org/2000/svg" d="M165.217 303.356c-1.404-1.755-2.809-0.702-2.808-1.755-8.426 2.106-24.223-3.511-30.894-2.809 1.404-2.106-2.106-1.755-2.106-3.159-1.404 2.106-2.809 0-4.915 0.702-2.106-5.266-10.532-1.404-11.585-8.075-4.915 0-6.67-2.809-11.586-5.617 0.351-0.351 0.702-0.351 1.054-0.702-2.457-0.351-2.457-1.755-4.564-1.755l0.702-1.405c-3.862-0.702-5.266-6.67-10.883-8.776-1.755-0.351-5.617-6.319-7.723-7.724-1.053-0.702-2.809-0.702-0.352-1.053-0.351-0.351-0.351-1.053 0-1.404-2.457-0.702-2.809-2.809-5.968-3.862-0.351-1.053 0.702-1.755 0-2.457-0.702-0.351-1.755 0.351-2.457 0-0.351 6.319 6.67 7.021 8.777 12.287-0.702-0.702-1.755-2.809-2.458-1.404-0.351 1.053 2.809 4.915 2.809 2.808-1.053 0.702-1.404-1.053-0.703-1.404 1.053 1.755 3.16 1.404 3.16 2.809-1.053 1.053-2.457-1.053-2.106 0.702 3.16 1.755 2.809 3.511 4.563 5.968-1.404-1.755-1.755 1.404-3.159 0-0.351-5.266-6.319-4.213-6.319-9.479-0.702-1.755-1.404-0.351-2.458-1.053 1.404-1.404-4.213-6.319-4.213-4.564-1.755-2.106-0.702-2.809-1.053-4.213-1.404-0.351-0.351 1.404-1.404 0.351 1.404-2.457-1.755-5.617-3.862-8.074l1.405-0.702c-2.457-1.404-2.809-4.213-4.564-7.373-2.106 3.16 4.213 10.181 3.159 11.585 0 0.351 2.457 3.16 3.16 4.564 2.809 4.915 4.915 10.883 8.777 13.692-0.702-0.351-0.351-2.457 0.702-1.404 0 1.053-0.702 2.106-0.702 3.159 2.106 2.106 3.862 3.862 5.968 5.968-4.564-2.809-9.128-5.617-12.288-9.83 1.755-0.351 3.511 2.809 4.915 2.458-3.511-2.809-2.457-3.862-3.861-7.372-1.404-1.053 0.351 1.404-1.054 1.755-4.564-4.213-8.075-6.67-10.181-10.532 0.351-0.351 0.702-0.702 0.703-1.404-0.351-0.351-0.351-0.351-0.703-0.702 2.106 2.106 2.809 3.862 5.266 4.212-1.053-1.053 0-1.404-1.404-2.457-0.702-1.404-1.755 0.702-2.457-0.351 0.702-1.053 0-2.457 0-3.511-0.702 0-1.404 0-1.756-1.053-0.702-0.351-1.053 0-1.404 0.702-0.351-0.351-0.351-1.053-0.702-1.404v-0.351c-0.351-0.351-0.702-1.053-1.053-1.405-2.809-7.372-4.564-17.202-8.426-23.521 1.053-4.213-0.702-12.638-1.755-14.745 1.053-1.755 0.351-9.83-0.351-11.234-1.755 0.702 0.351 4.564-1.404 5.617-1.755-7.723 1.053-16.5 0.351-23.521 0.702 0 1.404 0 1.404-0.351-1.053-1.053 0.702-3.16 0.351-5.617 1.404-3.16-3.16 4.564-3.16 7.723-0.351 0.702-1.755 0-1.404 1.756 0 2.457 0.702 7.372-0.702 10.883-0.702 0-0.702-0.702-1.404-0.351-0.351 1.755-0.702 3.862-1.053 5.617-0.351-0.702-0.702-1.755-0.703-2.107-1.755-8.777 0-18.958-0.702-26.33 1.404 0 1.404-2.106 2.458-2.808-0.351 2.809-1.053 6.319 0.702 7.021 1.404-13.692 4.213-28.787 10.532-43.532 4.564-10.883 11.234-21.766 19.308-30.543 0.702 1.053-0.351 3.511 0 4.564 7.021-7.372 11.585-16.149 19.309-21.064 0.351 1.755-3.16 3.16-3.16 4.564 3.16-3.16 4.213-2.106 7.724-3.159 1.053-1.404-1.404 0-1.756-1.405 2.106-1.404 3.511-3.16 4.915-4.212 0 0.351-0.351 0.351-0.351 0.702 3.862-1.053 4.213-3.16 7.022-3.862-0.351-0.351-1.053-0.702-2.107-0.351 0.702-0.351 1.755-1.053 2.809-1.404-0.351 0-0.351 0.351-0.702 0.351 2.106-1.053 0.351 0.351 0.351 1.053 0.351 0 0.702-0.351 0.702-0.351-2.106 1.404-3.511 2.106-4.213 4.564 1.053-0.702 1.404 0 2.809-1.054 1.404-0.702-0.351-1.755 0.702-2.457 1.053 0.702 2.457 0.351 3.51 0.351 0-0.702 0.351-1.404 1.054-1.755 0.351-0.702 0-1.053-0.352-1.053 0.351-0.351 0.702-0.351 1.405-0.703 0 0 0.351 0 0.351 0.351 5.968-2.809 12.638-5.266 18.957-7.372 3.862-0.351 8.777-0.351 10.883-2.808-0.702 0-1.404 0.351-1.755 0 0.351 0 1.053-0.351 1.404-0.351 0.702 0.702 1.755 0 0.702 1.404 0.351 0 0.351 0 0.703-0.351 0 0.351 0 0.351 0.351 0.702 0.351 0 0.702-0.351 1.053-1.053 0.351 0 0.702 0 1.053-0.351l-0.351 0.351c2.809-0.702 5.266-0.351 9.128-1.054 0-0.351 0-0.702 0-1.053 0.702 0 1.053-0.351 1.755-0.351v0.351c1.404-0.702 2.809 0.702 2.808 0 0.351 0 0.351 0 0.703 0 0 0.702-0.351 1.053-0.351 1.405 1.755 0 2.809 0 3.51-1.054-0.351-0.351-0.702-0.351-1.053-0.351 0.702 0 1.404-0.351 2.106-0.702 1.053 0.351 1.404 0.702 1.405 2.107 1.755-3.16 7.372 0.702 9.829 0 1.053 0 0.702-1.404 1.405-2.107 0.351 0 0.702 0 1.053 0 1.755 1.404 4.213 2.809 7.372 3.16-2.809-0.702 0.351-1.053 0.702-1.405-0.702 0-0.702-0.351-0.702-0.702 1.053 0 2.106 0.351 3.16 0.351 0 0.702 0.351 1.053 1.053 1.054 0.702 0 0.702-0.351 0.702-1.054 1.053 0 1.755 0 2.809 0.351-0.351 1.404 1.755 1.755 2.457 2.809-2.809-0.702-5.968-1.755-7.021 0 11.234 2.457 23.521 5.968 35.457 11.936 0 0 0 0 0 0.351h0.352c2.106 1.053 4.213 2.106 6.319 3.16 1.404 0.702 2.457 1.404 3.861 2.457 0 0.351 0 0.702 0.703 0.702h0.351c1.404 1.053 2.809 1.755 4.212 2.809 1.404 2.106 2.809 4.915 5.266 4.213 5.266 8.075 10.883 11.234 15.447 19.659 0.351-1.404 1.404 3.16 3.16 3.511-2.809-0.351 1.755 1.755-1.053 1.404 2.457 2.457 3.16 3.511 3.51 6.319-0.702-1.404-1.053-1.755-1.404-0.351-0.351 2.106 2.457-0.351 3.511 1.756-2.106 0-1.404 1.404-1.054 3.159 1.053-1.053 0.702-2.106 1.756-1.755 1.404 1.404-0.702 1.755-0.351 2.809 1.053-1.404 1.404-0.702 2.808 0-1.755 0.351 1.053 2.809-1.053 1.755 1.404 1.755 1.755 2.809 1.053 4.564-1.404-2.106-0.351-3.511-2.457-3.16 4.213 3.511 2.106 11.585 7.021 12.287-3.16 0.702 0 2.106-1.755 2.458 2.106 0.702 1.053 3.511 3.51 4.213-0.351 1.755-1.053 2.809-1.404 4.563 1.053 1.404 1.404 4.213 3.16 4.564-1.053 1.053-0.351 3.862-1.404 4.915 1.404-0.702 2.106-0.702 3.159 0.702-1.755 1.404-0.351 2.809-1.404 3.16 3.16 8.075-0.702 24.575 1.053 30.894-2.106-1.053-1.404 2.457-2.808 2.457 2.457 1.053 0.351 2.809 1.404 4.564-4.915 2.809 0 10.532-6.67 12.287 0.702 4.915-2.106 7.021-4.213 12.288-0.351-0.351-0.351-0.702-0.702-1.054-0.351 2.457-1.755 2.809-1.054 4.915l-1.404-0.702c0 3.862-5.968 5.968-7.372 11.936-0.351 1.755-5.617 6.319-7.022 8.777-0.702 1.053-0.351 2.809-1.053 0.351-0.351 0.351-1.053 0.351-1.404 0.351-0.351 2.457-2.457 3.16-3.16 6.319-0.702 0.351-1.755-0.702-2.457 0.351 0 0.702 0.702 1.755 0.351 2.458 6.319-0.351 6.319-7.723 11.234-10.181-0.351 1.053-2.457 2.106-1.053 2.808 1.053 0 4.213-3.511 2.457-3.159 1.053 0.702-1.053 1.404-1.404 1.053 1.755-1.404 1.053-3.16 2.458-3.511 1.053 0.702-1.053 2.457 1.053 2.107 1.404-3.16 3.16-3.511 5.266-5.266-1.404 1.404 1.755 1.755 0.351 3.159-5.266 1.053-3.511 7.021-8.777 7.724-1.404 1.053-0.351 1.404-0.702 2.457-1.755-1.053-5.617 4.915-4.213 4.564-1.755 1.755-2.809 1.053-4.212 1.404-0.351 1.404 1.404 0.351 0.702 1.405-2.457-1.053-5.617 2.457-7.724 4.915l-1.053-1.054c-1.053 2.809-3.862 3.16-7.021 5.266 3.511 1.755 9.479-5.617 11.234-4.564 0.351 0 3.16-2.809 4.213-3.861 4.564-3.511 10.181-6.319 12.287-10.181-0.351 0.702-2.457 0.702-1.404-0.351 1.053-0.351 2.106 0.351 3.159 0.351 5.617-7.723 12.638-14.043 17.905-23.17 0.351-0.351 0.702-1.053 1.053-1.756-0.702 2.106-1.755 3.862-2.458 5.968-5.617 3.862-7.723 15.096-14.393 16.851 0.351 3.862-3.16 4.915-4.915 9.479-1.053 1.404-1.755-1.053-2.809 0.702 1.053 4.915-8.777 4.564-8.425 9.128-0.702 0.351-1.755 0.702-2.458 1.404h-0.351c-0.351 0.351-0.351 0.351-0.702 0.702-1.755 1.053-3.16 2.106-4.564 3.16-4.915 2.809-11.585 4.915-16.851 7.723v-0.351c-1.404 0.702-3.16 0.351-2.809 1.756-1.053 0.702-2.106 1.404-3.159 2.106-0.351 0-0.351 0-0.702 0 0 0-0.351-0.351-0.702-0.351-0.702 0-0.702 0-1.054 0.351-4.564 0.351-10.532 2.457-12.287 3.862-1.755-1.053-9.83 0.702-11.234 1.404 0.702 1.053 2.809 0 4.564 0-1.053 0.351-2.106 0.702-2.458 1.404-0.351 0-0.351 0-0.702 0-0.351-1.053-1.404 0-1.755-0.351h0.351c-0.351-1.404-1.404-2.106-3.16-1.755 0 0.702 0 1.053-0.351 1.755 0.702 0 2.809-1.053 2.809 0-0.351 0-0.351 0.351 0 0.351-0.702 0.702-1.755 0.702-2.458 1.054-1.404 0-3.16 0-4.563 0-0.351-0.351-0.702-0.351-1.405-0.703-0.351 0.351-1.053 0.351-1.404 0.703-2.106 0-4.564 0.351-6.319 0.702 0-0.702 0-1.404-0.702-1.405-1.053 1.404-3.16-0.351-5.617 0.352-2.457-0.702 1.404 1.053 4.915 1.755-0.351 0.351-0.702 0.702-1.756 1.053M116.068 308.271c-4.915-4.564-15.096-6.67-16.851-10.181-2.809-0.351-7.021-5.617-10.532-6.319 1.755 0 0.351-1.053 0-1.755-0.702 0.702-1.404 1.053-2.106 1.053 0-2.809-2.809-4.564-5.266-6.319 1.755 1.053 3.16 1.755 5.266 2.106 0-0.702 0-1.404 0.702-1.404 2.457 2.457 5.266 4.915 8.425 7.372 4.213 3.862 25.979 13.692 29.841 15.447 0 0-0.702 1.404-0.351 1.404 1.755 1.053 3.16-1.053 3.511 1.404-5.617 0.702-7.723-3.16-12.639-2.808M277.909 226.824v0.351 0c-0.351 0 0-0.351 0-0.351M136.079 64.281c-0.351 0.351-0.702 0.351-0.702 0.351 0-0.351 0.351-0.351 0.702-0.351M129.409 66.036c0 0.351 0 0.351 0 0 0 0.351 0 0.351 0 0 0 0.351 0 0 0 0M106.238 73.408v0c0.351-0.351 0.351-0.351 0.703-0.351-0.351 0-0.702 0.351-0.703 0.351M162.409 61.823c-0.702 0-1.053 0-1.404-0.351 0.351 0 0.702 0 1.053 0h0.351c0 0 0 0 0 0.351M168.728 62.525c-0.351-0.351-1.404-0.702-2.457-0.702 0-0.351 0.351-0.702 0.351-0.702 0.351 0 0.702 0 1.053 0 0 0 0.351 0 0.351 0.351 0 0 0 0 0-0.351 0.351 0 0.351 0 0.702 0 0.351 0.702 0.702 1.053 0 1.404M180.313 63.579c-1.755 0.351-2.809-0.351-4.564-1.405 1.053 0 2.457 0.351 3.511 0.702 0.351 0 0.702 0.351 1.053 0.703M305.292 113.43c-0.702 0.351-1.053 0.351-1.755-1.053-5.617-11.936-15.798-29.138-30.543-43.532-14.394-14.745-33.702-26.681-51.255-33.001 1.053 0.351 2.457 1.053 1.755 1.756-15.447-5.968-30.192-9.479-44.234-10.883-37.915-5.968-77.585 2.106-108.128 21.766 0.351 0.702 0.351 1.053-0.702 1.755-11.234 7.021-27.032 19.309-39.671 35.458-12.638 16.149-22.468 36.511-26.681 54.766 0.351-1.053 0.702-2.809 1.405-2.107-9.128 36.16-6.67 67.053 5.968 93.735 0.702-0.702-1.755-4.213 0.351-3.862 1.404 3.862 3.16 8.075 5.266 11.936 2.457 5.617 5.266 12.989 9.128 14.745-9.83-19.309-16.5-41.426-17.203-61.085 1.404 2.809 1.053 8.777 3.16 11.234 0.702-13.34-2.457-31.245 2.106-43.883-1.053 6.67-1.755 15.798-1.053 24.925 0 6.67 3.16 25.277 5.266 27.032-0.351-0.351-0.351-2.106 0-2.106 1.053 2.106-1.404 3.16 0.351 3.511 0-0.702 0.351-0.702 0.702-0.703 3.511 7.723 8.075 19.66 11.585 25.628 4.213 7.723 9.83 14.745 16.149 21.064 0 0.351 0.351 0.351 0.352 0.702 0.702 1.755 3.16 3.862 3.861 5.266 0.351 0.702-0.351 1.755 0 2.458 5.266 9.83 12.989 19.66 22.468 27.383 5.968 7.021 15.447 14.394 27.032 20.713 11.234 5.968 24.223 10.883 36.16 13.691 8.426 2.106 18.606 2.457 24.926 3.862 8.426 1.755 23.17-0.702 30.542-2.107 44.234-6.67 88.117-36.862 110.235-80.393 22.819-43.883 22.117-97.596 2.457-138.671" fill="#ff4136" fill-rule="nonzero" stroke="none" stroke-width="1" stroke-linecap="butt" stroke-linejoin="miter" stroke-miterlimit="10" stroke-dasharray="" stroke-dashoffset="0" font-family="none" font-weight="none" font-size="none" text-anchor="none" style="mix-blend-mode: normal" data-fill-palette-color="tertiary"></path></g><g transform="matrix(1,0,0,1,80,161.56796904039274)"><svg viewBox="0 0 160 36.864061919214535" height="36.864061919214535" width="160"><g><svg viewBox="0 0 160 36.864061919214535" height="36.864061919214535" width="160"><g><svg viewBox="0 0 160 36.864061919214535" height="36.864061919214535" width="160"><g transform="matrix(1,0,0,1,0,22.173252169838943)"><svg viewBox="0 0 160 14.690809749375589" height="14.690809749375589" width="160"><g id="textblocktransform"><svg viewBox="0 0 160 14.690809749375589" height="14.690809749375589" width="160" id="textblock"><g><svg viewBox="0 0 160 7.923520799242096" height="7.923520799242096" width="160"><g transform="matrix(1,0,0,1,0,0)"><svg width="160" viewBox="1.5 -28.75 580.510009765625 28.75" height="7.923520799242096" data-palette-color="#ff4136"><path d="M35.95-28.75L35.95-23.1 21.55-23.1 21.55 0 14.65 0 14.65-23.1 1.5-23.1 1.5-28.75 35.95-28.75ZM42.45-28.75L42.45-28.75 58.45-28.75 58.45-22.85 48.75-22.85 48.75-17.2 58.45-17.2 58.45-11.35 48.75-11.35 48.75 0 42.45 0 42.45-28.75ZM76.9 0L76.9 0 76.9-11.9 72.2-14.35 76.9-16.6 76.9-25.3 71-28.75 60.7-28.75 60.7-22.85 70.6-22.85 70.6-17.2 60.7-17.2 60.7-11.35 70.6-11.35 70.6 0 76.9 0ZM84.4-28.75L84.4-28.75 90.7-28.75 90.7 0 84.4 0 84.4-28.75ZM98.69-3.4L98.69-25.3 104.54-28.75 114.89-28.75 114.89-23.1 105.19-23.1 105.19-5.85 114.69-5.85 114.69 0 104.54 0 98.69-3.4ZM133.34-9.3L126.84-9.3 126.84-5.85 117.34-5.85 117.34 0 127.49 0 133.34-3.4 133.34-9.3ZM126.84-19.6L133.34-19.6 133.34-25.3 127.49-28.75 117.14-28.75 117.14-23.1 126.84-23.1 126.84-19.6ZM142.34 0L142.34-28.75 148.64-28.75 148.64-17.2 151.44-17.2 151.44-11.5 148.64-11.5 148.64 0 142.34 0ZM176.79-2.85L158.34-14.35 176.79-25.9 170.89-28.75 153.29-17.2 153.29-11.5 170.89 0 176.79-2.85ZM180.79-14.75L180.79-25.3 186.49-28.75 196.79-28.75 196.79-22.85 186.89-22.85 186.89-17.2 196.79-17.2 196.79-11.35 186.49-11.35 180.79-14.75ZM215.24-3.4L215.24-13.75 209.34-17.2 199.04-17.2 199.04-11.35 208.94-11.35 208.94-5.65 199.24-5.65 199.24 0 209.34 0 215.24-3.4ZM180.79-9.1L187.09-9.1 187.09-5.65 196.79-5.65 196.79 0 186.64 0 180.79-3.4 180.79-9.1ZM208.94-19.45L215.24-19.45 215.24-25.3 209.34-28.75 199.04-28.75 199.04-22.85 208.94-22.85 208.94-19.45ZM254.69-28.75L254.69-23.1 240.29-23.1 240.29 0 233.39 0 233.39-23.1 220.24-23.1 220.24-28.75 254.69-28.75ZM261.18-28.75L261.18-28.75 277.18-28.75 277.18-22.85 267.48-22.85 267.48-17.2 277.18-17.2 277.18-11.5 267.48-11.5 267.48-5.65 276.98-5.65 276.98 0 261.18 0 261.18-28.75ZM279.63-5.65L279.63-5.65 279.63 0 295.63 0 295.63-5.65 279.63-5.65ZM295.63-22.85L295.63-22.85 295.63-28.75 279.43-28.75 279.43-22.85 295.63-22.85ZM287.53-11.5L287.53-11.5 287.53-17.2 279.43-17.2 279.43-11.5 287.53-11.5ZM302.13-28.75L302.13-28.75 318.13-28.75 318.13-22.85 308.43-22.85 308.43-17.2 318.13-17.2 318.13-11.35 308.43-11.35 308.43 0 302.13 0 302.13-28.75ZM336.58 0L336.58 0 336.58-11.9 331.88-14.35 336.58-16.6 336.58-25.3 330.68-28.75 320.38-28.75 320.38-22.85 330.28-22.85 330.28-17.2 320.38-17.2 320.38-11.35 330.28-11.35 330.28 0 336.58 0ZM359.07-3.4L359.07-25.3 364.93-28.75 375.27-28.75 375.27-22.85 365.57-22.85 365.57-5.65 375.07-5.65 375.07 0 364.93 0 359.07-3.4ZM387.22-19.45L393.73-19.45 393.73-25.3 387.88-28.75 377.52-28.75 377.52-22.85 387.22-22.85 387.22-19.45ZM393.73-3.4L393.73-17.2 377.52-17.2 377.52-11.5 387.22-11.5 387.22-5.65 377.72-5.65 377.72 0 387.88 0 393.73-3.4ZM401.72-25.3L401.72-25.3 407.42-28.75 417.72-28.75 417.72-23.1 408.02-23.1 408.02-17.2 417.72-17.2 417.72-11.5 408.02-11.5 408.02 0 401.72 0 401.72-25.3ZM436.17-25.3L436.17-25.3 430.27-28.75 419.97-28.75 419.97-23.1 429.87-23.1 429.87-17.2 419.97-17.2 419.97-11.5 429.87-11.5 429.87 0 436.17 0 436.17-25.3ZM445.17-28.75L445.17-28.75 450.87-28.75 461.17-19.05 461.17-11.5 451.47-20.65 451.47 0 445.17 0 445.17-28.75ZM479.62-28.75L479.62-28.75 473.97-28.75 463.62-19.05 463.62-11.5 473.32-20.65 473.32 0 479.62 0 479.62-28.75ZM488.62-28.75L488.62-28.75 494.92-28.75 494.92 0 488.62 0 488.62-28.75ZM503.92 0L503.92-28.75 509.62-28.75 519.91-19.05 519.91-11.5 510.22-20.85 510.22 0 503.92 0ZM522.16-17.2L532.07-8.1 532.07-28.75 538.37-28.75 538.37 0 532.47 0 522.16-9.9 522.16-17.2ZM547.36-3.4L547.36-25.3 553.21-28.75 563.56-28.75 563.56-22.85 553.86-22.85 553.86-5.65 563.36-5.65 563.36 0 553.21 0 547.36-3.4ZM575.51-19.45L582.01-19.45 582.01-25.3 576.16-28.75 565.81-28.75 565.81-22.85 575.51-22.85 575.51-19.45ZM582.01-3.4L582.01-17.2 565.81-17.2 565.81-11.5 575.51-11.5 575.51-5.65 566.01-5.65 566.01 0 576.16 0 582.01-3.4Z" opacity="1" transform="matrix(1,0,0,1,0,0)" fill="#ff4136" class="undefined-text-0" data-fill-palette-color="primary" id="text-0"></path></svg></g></svg></g><g transform="matrix(1,0,0,1,0,9.794073895443974)"><svg viewBox="0 0 160 4.896735853931616" height="4.896735853931616" width="160"><g transform="matrix(1,0,0,1,0,0)"><svg width="160" viewBox="4.25 -33.25 1110.93994140625 34" height="4.896735853931616" data-palette-color="#ff4136"><path d="M17.25-13.5L11.65-13.5 11.65-16.5 20.75-16.5 20.75 0 19.25 0 17.95-3.2Q16.9-1.4 15.2-0.33 13.5 0.75 11.5 0.75L11.5 0.75Q4.25 0.75 4.25-6.25L4.25-6.25 4.25-26.25Q4.25-29.6 6.3-31.43 8.35-33.25 12.45-33.25 16.55-33.25 18.65-31.43 20.75-29.6 20.75-26.25L20.75-26.25 20.75-23.5 17.25-23.5 17.25-26.25Q17.25-30.25 12.5-30.25 7.75-30.25 7.75-26.25L7.75-26.25 7.75-6.25Q7.75-4.35 8.55-3.3 9.35-2.25 11.48-2.25 13.6-2.25 15.43-3.95 17.25-5.65 17.25-7.25L17.25-7.25 17.25-13.5ZM82.41 0L89.76-32.5 95.01-32.5 102.36 0 98.86 0 97.16-7.5 87.61-7.5 85.91 0 82.41 0ZM96.46-10.5L92.36-28.6 88.26-10.5 96.46-10.5ZM168.27-26.9L168.27 0 164.77 0 164.77-32.5 170.02-32.5 175.72-11.05 181.47-32.5 186.72-32.5 186.72 0 183.22 0 183.22-26.9 177.37-5 174.12-5 168.27-26.9ZM266.88-3L266.88 0 252.13 0 252.13-32.5 266.38-32.5 266.38-29.5 255.63-29.5 255.63-18 264.38-18 264.38-15 255.63-15 255.63-3 266.88-3ZM333.29-11.5L333.29 0 329.79 0 329.79-32.5 337.34-32.5Q341.24-32.5 343.27-30.65 345.29-28.8 345.29-25.5L345.29-25.5 345.29-18.5Q345.29-13.4 340.89-12L340.89-12 347.04 0 343.19 0 337.34-11.5 333.29-11.5ZM341.79-18.5L341.79-18.5 341.79-25.5Q341.79-27.4 340.64-28.45 339.49-29.5 337.34-29.5L337.34-29.5 333.29-29.5 333.29-14.5 337.34-14.5Q341.79-14.5 341.79-18.5ZM425.35-6.25L425.35-6.25Q425.35 0.75 416.9 0.75 408.45 0.75 408.45-6.25L408.45-6.25 408.45-10.5 411.95-10.5 411.95-6.05Q411.95-4.25 413.2-3.25 414.45-2.25 416.9-2.25 419.35-2.25 420.6-3.25 421.85-4.25 421.85-5.98 421.85-7.7 421.48-8.72 421.1-9.75 419.95-10.9L419.95-10.9 411.15-19.5Q409.6-21.05 409.03-22.53 408.45-24 408.45-26.25L408.45-26.25Q408.45-29.6 410.53-31.43 412.6-33.25 416.8-33.25L416.8-33.25Q424.85-33.25 424.85-26.25L424.85-26.25 424.85-22 421.35-22 421.35-26.45Q421.35-28.25 420.18-29.25 419-30.25 416.65-30.25 414.3-30.25 413.13-29.25 411.95-28.25 411.95-26.5 411.95-24.75 412.3-23.75 412.65-22.75 413.85-21.65L413.85-21.65 422.8-13.05Q424.25-11.45 424.8-9.98 425.35-8.5 425.35-6.25ZM560.17-11.5L560.17 0 556.67 0 556.67-32.5 564.22-32.5Q568.12-32.5 570.15-30.65 572.17-28.8 572.17-25.5L572.17-25.5 572.17-18.5Q572.17-13.4 567.77-12L567.77-12 573.92 0 570.07 0 564.22-11.5 560.17-11.5ZM568.67-18.5L568.67-18.5 568.67-25.5Q568.67-27.4 567.52-28.45 566.37-29.5 564.22-29.5L564.22-29.5 560.17-29.5 560.17-14.5 564.22-14.5Q568.67-14.5 568.67-18.5ZM651.08-3L651.08 0 636.33 0 636.33-32.5 650.58-32.5 650.58-29.5 639.83-29.5 639.83-18 648.58-18 648.58-15 639.83-15 639.83-3 651.08-3ZM716.99-10L716.99 0 713.49 0 713.49-32.5 721.04-32.5Q724.94-32.5 726.97-30.65 728.99-28.8 728.99-25.5L728.99-25.5 728.99-17Q728.99-13.65 726.99-11.83 724.99-10 721.04-10L721.04-10 716.99-10ZM725.49-17L725.49-17 725.49-25.5Q725.49-27.4 724.34-28.45 723.19-29.5 721.04-29.5L721.04-29.5 716.99-29.5 716.99-13 721.04-13Q725.49-13 725.49-17ZM805.4-6.25L805.4-6.25 805.4-32.5 808.9-32.5 808.9-6.25Q808.9-2.9 806.78-1.07 804.65 0.75 800.43 0.75 796.2 0.75 794.05-1.07 791.9-2.9 791.9-6.25L791.9-6.25 791.9-32.5 795.4-32.5 795.4-6.25Q795.4-2.25 800.4-2.25 805.4-2.25 805.4-6.25ZM873.81 0L873.81-32.5 881.36-32.5Q885.26-32.5 887.29-30.65 889.31-28.8 889.31-25.5L889.31-25.5 889.31-22.5Q889.31-18.25 885.76-17.05L885.76-17.05Q889.81-15.95 889.81-11.5L889.81-11.5 889.81-7Q889.81-3.65 887.81-1.83 885.81 0 881.86 0L881.86 0 873.81 0ZM886.31-7L886.31-7 886.31-11.5Q886.31-13.1 885.11-14.43 883.91-15.75 881.86-15.75L881.86-15.75 877.31-15.75 877.31-3 881.86-3Q883.96-3 885.14-4.17 886.31-5.35 886.31-7ZM885.81-22.5L885.81-22.5 885.81-25.5Q885.81-27.1 884.64-28.3 883.46-29.5 881.36-29.5L881.36-29.5 877.31-29.5 877.31-18.25 881.36-18.25Q883.46-18.25 884.64-19.55 885.81-20.85 885.81-22.5ZM967.12 0L954.47 0 954.47-32.5 957.97-32.5 957.97-3 967.12-3 967.12 0ZM1033.03-3L1035.53-3 1035.53 0 1027.03 0 1027.03-3 1029.53-3 1029.53-29.5 1027.03-29.5 1027.03-32.5 1035.53-32.5 1035.53-29.5 1033.03-29.5 1033.03-3ZM1111.69-6.25L1111.69-6.25 1111.69-9 1115.19-9 1115.19-6.25Q1115.19-2.9 1113.14-1.07 1111.09 0.75 1106.99 0.75 1102.89 0.75 1100.79-1.07 1098.69-2.9 1098.69-6.25L1098.69-6.25 1098.69-26.25Q1098.69-29.6 1100.74-31.43 1102.79-33.25 1106.89-33.25 1110.99-33.25 1113.09-31.43 1115.19-29.6 1115.19-26.25L1115.19-26.25 1115.19-21.5 1111.69-21.5 1111.69-26.25Q1111.69-30.25 1106.94-30.25 1102.19-30.25 1102.19-26.25L1102.19-26.25 1102.19-6.25Q1102.19-2.25 1106.94-2.25 1111.69-2.25 1111.69-6.25Z" opacity="1" transform="matrix(1,0,0,1,0,0)" fill="#ff4136" class="undefined-text-1" data-fill-palette-color="secondary" id="text-1"></path></svg></g></svg></g></svg></g></svg></g><g transform="matrix(1,0,0,1,65.92218541232783,0)"><svg viewBox="0 0 28.15562917534433 20.302699073637065" height="20.302699073637065" width="28.15562917534433"><g><svg xmlns="http://www.w3.org/2000/svg" xmlns:xlink="http://www.w3.org/1999/xlink" version="1.1" x="0" y="0" viewBox="15.699996948242188 21.5 58.79999542236328 42.39999771118164" enable-background="new 0 0 90 90" xml:space="preserve" height="20.302699073637065" width="28.15562917534433" class="icon-icon-0" data-fill-palette-color="accent" id="icon-0"><g fill="#ed2647" data-fill-palette-color="accent"><path fill="#ed2647" d="M60.3 37.1c-1.3 0.1-2.5 0.3-3.7 0.7-0.6 0.2-1.2 0.3-1.7 0.3h-7.1c1.8-2.1 2.7-3.9 2.6-5.6-0.1-2.3-1.9-3.9-3.5-5.3-1.2-1-2.3-2-2.4-3.1 0-0.6 0.3-1.3 1.1-2L45 21.5c-1 1-1.4 1.9-1.4 2.8 0.1 1.5 1.3 2.6 2.7 3.8 1.5 1.3 3.1 2.7 3.1 4.6 0.1 1.6-0.9 3.4-3 5.6H35.1c-0.5 0-1.1-0.1-1.7-0.3-1.2-0.4-2.5-0.7-3.7-0.7-7.3-0.4-13.9 6-14 13.2 0 3.6 1.3 6.9 3.9 9.5 2.5 2.5 5.9 3.9 9.5 3.9 2.8 0 5.4-0.8 7.7-2.4 0.7-0.5 1.7-0.8 2.6-0.8h11.4c1 0 1.9 0.3 2.6 0.8 2.3 1.6 4.9 2.4 7.7 2.4 3.6 0 6.9-1.4 9.5-3.9 2.5-2.5 3.9-5.9 3.9-9.5C74.2 43.1 67.6 36.7 60.3 37.1zM69.7 59.1c-2.3 2.3-5.4 3.6-8.7 3.6-2.5 0-5-0.8-7.1-2.2-0.9-0.6-2-1-3.2-1H39.3c-1.2 0-2.3 0.3-3.2 1-2.1 1.5-4.5 2.2-7.1 2.2-3.3 0-6.4-1.3-8.7-3.6-2.3-2.3-3.6-5.5-3.6-8.8 0.1-6.7 6.2-12.5 12.9-12.2 1.2 0.1 2.3 0.3 3.5 0.7 0.7 0.3 1.4 0.4 2 0.4h19.7c0.6 0 1.3-0.1 2-0.4 1.1-0.4 2.3-0.6 3.5-0.7 6.8-0.3 12.9 5.5 12.9 12.2C73.3 53.6 72 56.7 69.7 59.1z" data-fill-palette-color="accent"></path><path fill="#ed2647" d="M63.4 48.6c1.2 0 2.2-1 2.2-2.2s-1-2.2-2.2-2.2-2.2 1-2.2 2.2S62.2 48.6 63.4 48.6zM63.4 45.2c0.7 0 1.2 0.6 1.2 1.2 0 0.7-0.6 1.2-1.2 1.2s-1.2-0.6-1.2-1.2C62.2 45.7 62.7 45.2 63.4 45.2z" data-fill-palette-color="accent"></path><path fill="#ed2647" d="M63.4 52.2c-1.2 0-2.2 1-2.2 2.2 0 1.2 1 2.2 2.2 2.2s2.2-1 2.2-2.2C65.6 53.2 64.6 52.2 63.4 52.2zM63.4 55.6c-0.7 0-1.2-0.6-1.2-1.2 0-0.7 0.6-1.2 1.2-1.2s1.2 0.6 1.2 1.2C64.6 55.1 64.1 55.6 63.4 55.6z" data-fill-palette-color="accent"></path><path fill="#ed2647" d="M67.4 48.2c-1.2 0-2.2 1-2.2 2.2 0 1.2 1 2.2 2.2 2.2s2.2-1 2.2-2.2C69.6 49.2 68.6 48.2 67.4 48.2zM67.4 51.6c-0.7 0-1.2-0.6-1.2-1.2 0-0.7 0.6-1.2 1.2-1.2s1.2 0.6 1.2 1.2C68.6 51.1 68.1 51.6 67.4 51.6z" data-fill-palette-color="accent"></path><path fill="#ed2647" d="M59.4 48.2c-1.2 0-2.2 1-2.2 2.2 0 1.2 1 2.2 2.2 2.2 1.2 0 2.2-1 2.2-2.2C61.7 49.2 60.7 48.2 59.4 48.2zM59.4 51.6c-0.7 0-1.2-0.6-1.2-1.2 0-0.7 0.6-1.2 1.2-1.2 0.7 0 1.2 0.6 1.2 1.2C60.7 51.1 60.1 51.6 59.4 51.6z" data-fill-palette-color="accent"></path><path fill="#ed2647" d="M32.7 48.1h-2.3c-0.2 0-0.3-0.1-0.3-0.3v-2.3c0-0.7-0.6-1.3-1.3-1.3h-2c-0.7 0-1.3 0.6-1.3 1.3v2.3c0 0.2-0.1 0.3-0.3 0.3h-2.3c-0.7 0-1.3 0.6-1.3 1.3v2c0 0.7 0.6 1.3 1.3 1.3h2.3c0.2 0 0.3 0.1 0.3 0.3v2.3c0 0.7 0.6 1.3 1.3 1.3h2c0.7 0 1.3-0.6 1.3-1.3V53c0-0.2 0.1-0.3 0.3-0.3h2.3c0.7 0 1.3-0.6 1.3-1.3v-2C34 48.7 33.5 48.1 32.7 48.1zM33 51.4c0 0.2-0.1 0.3-0.3 0.3h-2.3c-0.7 0-1.3 0.6-1.3 1.3v2.3c0 0.2-0.1 0.3-0.3 0.3h-2c-0.2 0-0.3-0.1-0.3-0.3V53c0-0.7-0.6-1.3-1.3-1.3h-2.3c-0.2 0-0.3-0.1-0.3-0.3v-2c0-0.2 0.1-0.3 0.3-0.3h2.3c0.7 0 1.3-0.6 1.3-1.3v-2.3c0-0.2 0.1-0.3 0.3-0.3h2c0.2 0 0.3 0.1 0.3 0.3v2.3c0 0.7 0.6 1.3 1.3 1.3h2.3c0.2 0 0.3 0.1 0.3 0.3V51.4z" data-fill-palette-color="accent"></path><path fill="#ed2647" d="M47.9 50.7l-1.8 1.8c-0.6 0.6-0.6 1.5 0 2.1 0.3 0.3 0.6 0.4 1 0.4s0.8-0.2 1-0.4l1.8-1.8c0.6-0.6 0.6-1.5 0-2.1C49.4 50.2 48.5 50.2 47.9 50.7zM49.3 52.1l-1.8 1.8c-0.2 0.2-0.5 0.2-0.7 0-0.2-0.2-0.2-0.5 0-0.7l1.8-1.8c0.1-0.1 0.2-0.1 0.3-0.1 0.1 0 0.2 0 0.3 0.1C49.4 51.6 49.4 51.9 49.3 52.1z" data-fill-palette-color="accent"></path><path fill="#ed2647" d="M41.8 50.7L40 52.5c-0.6 0.6-0.6 1.5 0 2.1 0.3 0.3 0.6 0.4 1 0.4 0.4 0 0.8-0.2 1-0.4l1.8-1.8c0.3-0.3 0.4-0.6 0.4-1s-0.2-0.8-0.4-1C43.3 50.2 42.4 50.2 41.8 50.7zM43.2 52.1l-1.8 1.8c-0.2 0.2-0.5 0.2-0.7 0-0.2-0.2-0.2-0.5 0-0.7l1.8-1.8c0.1-0.1 0.2-0.1 0.3-0.1s0.2 0 0.3 0.1c0.1 0.1 0.1 0.2 0.1 0.3S43.3 52 43.2 52.1z" data-fill-palette-color="accent"></path></g></svg></g></svg></g><g></g></svg></g></svg></g></svg></g></svg></g><defs></defs></svg><rect width="320" height="360" fill="none" stroke="none" visibility="hidden"></rect></g></svg></g></svg>